<svg xmlns="http://www.w3.org/2000/svg" viewBox="0 0 300 400" width="900" height="1200">
<title>Demo-Foto kleid, vorne</title>
<g fill="none" stroke="#5C5F66" stroke-width="1.5" stroke-linecap="round" stroke-linejoin="round" vector-effect="non-scaling-stroke">
<path d="M128 60C138 70 162 70 172 60L196 70C204 74 208 82 210 92L222 134L204 140L196 116L192 178C220 240 238 300 250 350H50C62 300 80 240 108 178L104 116L96 140L78 134L90 92C92 82 96 74 104 70Z" vector-effect="non-scaling-stroke"/>
<path d="M128 60C134 84 166 84 172 60" vector-effect="non-scaling-stroke"/>
<path d="M108 178C130 186 170 186 192 178" vector-effect="non-scaling-stroke"/>
<path d="M130 200L118 350M170 200L182 350" vector-effect="non-scaling-stroke"/>
<path d="M150 184L140 212M150 184L160 214" vector-effect="non-scaling-stroke"/>
</g>
</svg>
