<svg xmlns="http://www.w3.org/2000/svg" viewBox="0 0 300 400" width="900" height="1200">
<title>Demo-Foto jeans, vorne</title>
<g fill="none" stroke="#5C5F66" stroke-width="1.5" stroke-linecap="round" stroke-linejoin="round" vector-effect="non-scaling-stroke">
<path d="M94 56H206L216 352H162L150 134L138 352H84Z" vector-effect="non-scaling-stroke"/>
<path d="M94 74H206" vector-effect="non-scaling-stroke"/>
<path d="M147 65a3 3 0 1 0 6 0a3 3 0 1 0 -6 0" vector-effect="non-scaling-stroke"/>
<path d="M160 74V120C160 128 154 132 150 134" vector-effect="non-scaling-stroke"/>
<path d="M100 74C108 96 116 104 128 106M200 74C192 96 184 104 172 106" vector-effect="non-scaling-stroke"/>
<path d="M178 82H194V96" vector-effect="non-scaling-stroke"/>
<path d="M86 340H136M164 340H214" vector-effect="non-scaling-stroke"/>
</g>
</svg>
