<svg xmlns="http://www.w3.org/2000/svg" version="1.1" viewBox="0 0 183 18"><title>State of Art</title>
    <path fill="#17243f" d="M16.4,9.1c-1-.8-2.5-1.3-4.5-1.6l-4-.6c-.8-.1-1.5-.2-2-.4-.5-.1-.9-.3-1.2-.5-.3-.2-.4-.3-.5-.5,0-.2-.1-.4-.1-.6,0-.4.1-.7.4-1,.3-.3.6-.5,1-.7.4-.2.9-.3,1.4-.4.5,0,1.1-.1,1.7-.1,1,0,1.8,0,2.5.2,0,0,0,0,.2,0,.3,0,.6.2.9.3.9.3,2.1.9,2.7,1.7l2.6-.9c-.1-.5-.7-1.6-1.9-2.4-.7-.5-1.5-.9-2.7-1.2-1.2-.3-2.6-.5-4.3-.5s-1.4,0-2.1.1c-.8,0-1.6.3-2.5.6s-1.7.8-2.3,1.6c-.6.7-1,1.7-1,2.9s.5,2.4,1.6,3.2c1.1.8,2.6,1.4,4.6,1.7l4.1.6c2.5.3,3.7,1,3.7,2.1s-.5,1.3-1.4,1.7c-1,.4-2.1.6-3.5.6s-.4,0-.6,0c0,0,0,0,0,0h0c-.8,0-1.5-.1-2.2-.3-.8-.2-1.4-.5-1.9-.7-.5-.3-.9-.6-1.3-.8-.3-.3-.8-.7-.9-1.1l-2.8.9c.1.4.4.9.7,1.4,0,0,0,0,0,0,.3.5.9,1.1,1.6,1.6.7.5,1.7,1,2.9,1.3,1.2.4,2.7.5,4.4.5s2.3-.1,3.3-.3c1-.2,1.9-.5,2.7-1,.8-.4,1.4-1,1.8-1.7.4-.7.6-1.6.6-2.5,0-1.4-.5-2.5-1.6-3.3Z"></path>
    <path fill="#17243f" d="M105.5,1.8c-.5-.5-1.1-.9-1.9-1.2-.8-.3-1.7-.4-2.8-.4s-2,.1-2.8.4c-.8.3-1.4.7-1.9,1.2-.5.5-.8,1.1-1.1,1.7-.2.6-.3,1.3-.3,2.1s0,1.2.3,1.8c.2.6.5,1.2,1,1.7.5.5,1.1,1,1.9,1.3.8.3,1.8.5,2.9.5s2.1-.2,2.9-.5c.8-.3,1.4-.8,1.9-1.3.5-.5.8-1.1,1-1.7.2-.6.3-1.2.3-1.8s-.1-1.4-.3-2.1c-.2-.6-.6-1.2-1.1-1.7ZM104.6,5.5c0,.6-.1,1.2-.3,1.6-.2.4-.5.8-.9,1-.4.3-.8.4-1.2.6-.9.2-1.9.2-2.8,0-.4-.1-.8-.3-1.2-.6-.4-.3-.6-.6-.9-1-.2-.4-.3-1-.3-1.6,0-1.1.3-1.9,1-2.5.7-.6,1.6-.9,2.8-.9s2.1.3,2.8.9c.7.6,1,1.4,1,2.5Z"></path>
    <polygon fill="#17243f" points="118.5 2.4 118.5 .4 109 .4 109 10.7 111.3 10.7 111.3 6.4 116.5 6.4 116.5 4.4 111.3 4.4 111.3 2.4 118.5 2.4"></polygon>
    <path fill="#17243f" d="M26.5,3.3h-7.6V.4h18.6v2.9h-7.6v14.2h-3.3V3.3Z"></path>
    <path fill="#17243f" d="M42.7.4h3.8l8.3,17.1h-3.5l-1.8-3.9h-9.8l-1.8,3.9h-3.5L42.7.4ZM48.2,10.7l-3.6-7.6-3.6,7.6h7.1Z"></path>
    <path fill="#17243f" d="M59.4,3.3h-7.6V.4h18.6v2.9h-7.6v14.2h-3.3V3.3Z"></path>
    <path fill="#17243f" d="M73.6.4h15.3v2.9h-12v4h8.9v2.9h-8.9v4.5h12.3v2.9h-15.6V.4Z"></path>
    <path fill="#17243f" d="M130,.4h3.8l8.3,17.1h-3.5l-1.8-3.9h-9.8l-1.8,3.9h-3.5L130,.4ZM135.4,10.7l-3.6-7.6-3.6,7.6h7.1Z"></path>
    <path fill="#17243f" d="M144.9.4h10.3c1.1,0,2.1,0,2.9.2.8.1,1.5.4,2.1.8.6.4,1.1.9,1.4,1.6.3.7.5,1.5.5,2.5,0,1.5-.5,2.7-1.4,3.6-.9.9-2.1,1.4-3.4,1.4l5.2,7h-4.1l-5-6.7h-5.3v6.7h-3.3V.4ZM154.7,8c1.5,0,2.5-.2,3.2-.5s1-1,1-1.9-.3-1.6-1-1.9c-.6-.3-1.7-.5-3.2-.5h-6.4v4.8h6.4Z"></path>
    <path fill="#17243f" d="M172,3.3h-7.6V.4h18.6v2.9h-7.6v14.2h-3.3V3.3Z"></path>
    <rect fill="#db4514" x="95.1" y="15" width="21.3" height="2.5"></rect>
</svg>
